<?xml version="1.0" standalone="no"?>
<!DOCTYPE svg PUBLIC "-//W3C//DTD SVG 20010904//EN"
 "http://www.w3.org/TR/2001/REC-SVG-20010904/DTD/svg10.dtd">
<svg version="1.0" xmlns="http://www.w3.org/2000/svg"
 width="2500.000000pt" height="2500.000000pt" viewBox="0 0 2500.000000 2500.000000"
 preserveAspectRatio="xMidYMid meet">
<metadata>
Created by potrace 1.14, written by Peter Selinger 2001-2017
</metadata>
<g transform="translate(0.000000,2500.000000) scale(0.100000,-0.100000)"
fill="#000000" stroke="none">
<path d="M3009 24096 c-2 -2 -35 -6 -74 -9 -58 -5 -171 -22 -260 -41 -152 -31
-330 -94 -495 -174 -87 -42 -288 -157 -300 -172 -3 -3 -21 -17 -40 -30 -144
-100 -335 -283 -453 -435 -93 -121 -86 -111 -118 -160 -164 -251 -289 -565
-338 -850 -17 -98 -19 -116 -27 -200 -9 -98 -10 -18889 -1 -19032 34 -538 281
-1065 681 -1457 204 -199 430 -349 721 -476 78 -35 314 -106 410 -125 218 -42
-428 -39 9740 -41 9635 -2 9616 -2 9765 29 14 3 48 10 75 16 165 32 349 94
514 173 568 270 1006 776 1192 1378 34 108 66 246 74 317 3 26 8 55 10 63 2 8
7 49 11 90 9 95 10 18898 1 19040 -4 58 -9 119 -12 135 -38 215 -59 300 -102
425 -275 788 -941 1360 -1753 1504 -47 8 -103 18 -125 23 -39 7 -19088 17
-19096 9z m3691 -7309 c25 -4 70 -9 100 -12 164 -16 471 -90 585 -140 17 -7
41 -16 55 -20 27 -8 252 -117 285 -137 10 -7 51 -33 90 -57 63 -41 149 -103
215 -156 59 -48 242 -237 299 -309 215 -272 377 -602 467 -953 18 -73 36 -145
38 -160 22 -131 36 -233 42 -318 9 -130 10 -3887 1 -4025 -4 -58 -9 -114 -11
-126 -2 -12 -7 -45 -11 -75 -33 -269 -147 -616 -283 -869 -208 -386 -519 -704
-882 -903 -193 -105 -514 -218 -715 -251 -124 -20 -119 -19 -210 -30 -27 -3
-79 -8 -115 -12 -64 -7 -2645 -14 -2665 -7 -7 2 -10 1397 -9 4281 1 2352 2
4279 3 4282 2 8 2667 4 2721 -3z m7400 -757 l0 -765 -1377 0 -1378 0 -3 -995
-2 -995 822 0 c453 0 832 -1 844 -3 l21 -4 -1 -761 -1 -762 -820 -2 c-451 -1
-830 -2 -842 -2 l-23 -1 0 -994 0 -994 1343 -1 c738 0 1359 0 1380 0 l37 -1 0
-765 0 -765 -1667 1 c-918 0 -1695 4 -1728 9 -278 41 -538 199 -700 426 -103
142 -166 299 -188 466 -19 140 -16 6690 2 6798 26 144 85 292 169 419 33 50
177 203 227 241 143 108 349 191 518 207 34 3 63 6 64 7 1 0 744 1 1652 1
l1651 0 0 -765z m2603 759 c2 -2 20 -69 41 -149 20 -80 57 -221 81 -315 25
-93 47 -179 50 -190 2 -11 23 -90 45 -175 23 -85 43 -162 45 -170 3 -15 47
-182 85 -325 10 -38 42 -160 71 -270 114 -439 140 -539 199 -765 34 -129 63
-242 65 -250 2 -8 22 -85 45 -170 22 -85 43 -162 45 -170 2 -8 17 -67 33 -130
65 -247 104 -396 107 -410 2 -8 11 -42 20 -75 9 -33 36 -136 60 -230 24 -93
64 -246 89 -340 24 -93 62 -240 85 -325 22 -85 48 -182 57 -215 9 -33 20 -76
24 -95 11 -45 59 -232 109 -418 22 -81 65 -246 96 -367 31 -121 64 -245 73
-275 l15 -55 19 70 c10 39 20 81 23 95 4 14 7 30 9 35 1 6 8 30 15 55 7 25 14
52 16 60 2 8 8 35 15 60 7 25 14 52 15 60 6 23 205 789 260 995 15 55 28 107
30 115 2 8 8 35 15 60 7 25 13 52 15 60 2 8 12 49 23 90 27 99 68 256 138 525
31 121 77 297 101 390 25 94 49 186 53 205 5 19 32 123 60 230 28 107 52 202
54 210 2 8 81 312 176 675 94 363 173 667 175 675 2 8 25 94 50 190 25 96 71
272 101 390 101 391 165 633 168 639 5 7 1673 7 1680 0 3 -3 -12 -73 -35 -155
-22 -82 -53 -198 -69 -259 -15 -60 -40 -155 -55 -210 -54 -200 -216 -810 -220
-825 -3 -14 -25 -95 -75 -285 -12 -44 -39 -145 -60 -225 -21 -80 -48 -181 -60
-225 -12 -44 -23 -84 -24 -90 -5 -19 -19 -71 -68 -255 -27 -102 -51 -192 -53
-200 -2 -8 -13 -51 -25 -95 -12 -44 -32 -120 -45 -170 -13 -49 -33 -125 -44
-167 -12 -43 -30 -113 -42 -155 -11 -43 -31 -120 -45 -171 -14 -51 -27 -101
-29 -111 -2 -11 -13 -53 -24 -93 -11 -40 -27 -99 -36 -130 -8 -32 -22 -84 -31
-115 -8 -32 -17 -65 -19 -73 -3 -15 -58 -223 -155 -585 -28 -104 -53 -197 -55
-205 -1 -9 -39 -153 -84 -320 -45 -168 -106 -399 -137 -515 -31 -115 -71 -266
-89 -335 -19 -69 -77 -289 -130 -490 -53 -201 -101 -383 -107 -405 -6 -22 -13
-44 -14 -50 -1 -5 -15 -55 -29 -110 -15 -55 -28 -107 -30 -115 -14 -59 -97
-359 -104 -375 -5 -11 -32 -67 -59 -125 -27 -58 -74 -148 -105 -199 -32 -52
-57 -96 -57 -98 0 -2 -5 -9 -10 -16 -6 -7 -38 -50 -73 -97 -56 -77 -213 -244
-277 -295 -103 -83 -245 -158 -366 -194 -432 -130 -909 96 -1256 594 -139 200
-234 397 -283 585 -20 80 -44 166 -51 191 -8 25 -16 55 -18 66 -3 11 -30 116
-61 234 -32 118 -80 297 -107 399 -27 102 -55 208 -63 235 -7 28 -43 163 -80
300 -36 138 -72 273 -80 300 -7 28 -44 165 -80 305 -37 140 -73 275 -80 300
-8 25 -35 126 -60 225 -26 99 -67 254 -91 345 -25 91 -59 217 -75 280 -17 63
-41 153 -54 200 -13 47 -26 96 -29 110 -5 22 -41 158 -91 340 -13 48 -65 243
-211 795 -19 72 -36 137 -38 145 -2 8 -21 76 -41 150 -20 74 -38 142 -40 150
-6 27 -95 364 -110 415 -12 42 -46 168 -61 228 -2 9 -6 25 -8 35 -3 9 -16 58
-29 107 -44 162 -128 479 -142 535 -14 53 -106 401 -115 430 -5 19 -17 62 -25
95 -9 33 -25 92 -35 130 -60 225 -72 272 -76 295 l-4 25 839 -1 c462 0 842 -2
844 -5z"/>
<path d="M5793 15192 l-183 -2 0 -2706 0 -2705 523 4 c582 4 565 2 740 78 155
67 320 191 400 300 33 45 80 140 100 199 43 129 42 80 42 2120 0 1070 -3 1965
-8 1990 -17 102 -60 225 -99 282 -10 14 -18 29 -18 32 0 3 -8 16 -17 28 -138
173 -373 317 -592 363 -41 8 -138 14 -261 15 -107 0 -251 2 -320 3 -69 1 -207
1 -307 -1z"/>
</g>
</svg>
